<?xml version="1.0" encoding="UTF-8"?>
<svg id="_レイヤー_2" data-name="レイヤー 2" xmlns="http://www.w3.org/2000/svg" xmlns:xlink="http://www.w3.org/1999/xlink" viewBox="0 0 348.79 374.37">
  <defs>
    <style>
      .cls-1 {
        mask: url(#mask);
      }

      .cls-2 {
        fill: #fff;
      }

      .cls-3 {
        fill: #d8b878;
      }
    </style>
    <mask id="mask" x="-139.52" y="-127.89" width="595.28" height="595.28" maskUnits="userSpaceOnUse">
      <g id="reel-holes">
        <rect class="cls-2" x="-139.52" y="-127.89" width="595.28" height="595.28"/>
        <circle cx="69.76" cy="69.76" r="23.25"/>
        <circle cx="246.48" cy="69.76" r="23.25"/>
      </g>
    </mask>
  </defs>
  <g id="_レイヤー_1-2" data-name="レイヤー 1">
    <g class="cls-1">
      <g>
        <circle class="cls-3" cx="69.76" cy="69.76" r="69.76"/>
        <circle class="cls-3" cx="246.48" cy="69.76" r="69.76"/>
        <rect class="cls-3" x="34.88" y="127.89" width="246.48" height="151.14" rx="23.25" ry="23.25"/>
        <path class="cls-3" d="M267.41,168.58l69.76-29.07c5.81-2.33,11.63,2.33,11.63,9.3v86.04c0,6.98-5.81,11.63-11.63,9.3l-69.76-29.07v-46.51Z"/>
        <path class="cls-3" d="M134.87,279.04l-41.86,81.39c-3.49,6.98,1.16,13.95,9.3,13.95h13.95l30.23-72.08h23.25l30.23,72.08h13.95c8.14,0,12.79-6.98,9.3-13.95l-41.86-81.39h-46.51Z"/>
      </g>
    </g>
  </g>
</svg>